0
SECTION
2
HEADER
9
$INSUNITS
70
4
9
$ACADVER
1
AC1014
9
$HANDSEED
5
FFFF
0
ENDSEC
0
SECTION
2
TABLES
0
TABLE
2
VPORT
5
8
100
AcDbSymbolTable
0
ENDTAB
0
TABLE
2
LTYPE
5
5
100
AcDbSymbolTable
0
LTYPE
5
14
100
AcDbSymbolTableRecord
100
AcDbLinetypeTableRecord
2
BYBLOCK
70
0
0
LTYPE
5
15
100
AcDbSymbolTableRecord
100
AcDbLinetypeTableRecord
2
BYLAYER
70
0
0
ENDTAB
0
TABLE
2
LAYER
5
2
100
AcDbSymbolTable
70
2
0
LAYER
5
50
100
AcDbSymbolTableRecord
100
AcDbLayerTableRecord
2
0
70
0
6
CONTINUOUS
0
ENDTAB
0
TABLE
2
STYLE
5
3
100
AcDbSymbolTable
70
1
0
STYLE
5
11
100
AcDbSymbolTableRecord
100
AcDbTextStyleTableRecord
2
STANDARD
70
0
0
ENDTAB
0
TABLE
2
VIEW
5
6
100
AcDbSymbolTable
70
0
0
ENDTAB
0
TABLE
2
UCS
5
7
100
AcDbSymbolTable
70
0
0
ENDTAB
0
TABLE
2
APPID
5
9
100
AcDbSymbolTable
70
2
0
APPID
5
12
100
AcDbSymbolTableRecord
100
AcDbRegAppTableRecord
2
ACAD
70
0
0
ENDTAB
0
TABLE
2
DIMSTYLE
5
A
100
AcDbSymbolTable
70
1
0
ENDTAB
0
TABLE
2
BLOCK_RECORD
5
1
100
AcDbSymbolTable
70
1
0
BLOCK_RECORD
5
1F
100
AcDbSymbolTableRecord
100
AcDbBlockTableRecord
2
*MODEL_SPACE
0
BLOCK_RECORD
5
1B
100
AcDbSymbolTableRecord
100
AcDbBlockTableRecord
2
*PAPER_SPACE
0
ENDTAB
0
ENDSEC
0
SECTION
2
BLOCKS
0
BLOCK
5
20
100
AcDbEntity
100
AcDbBlockBegin
2
*MODEL_SPACE
0
ENDBLK
5
21
100
AcDbEntity
100
AcDbBlockEnd
0
BLOCK
5
1C
100
AcDbEntity
100
AcDbBlockBegin
2
*PAPER_SPACE
0
ENDBLK
5
1D
100
AcDbEntity
100
AcDbBlockEnd
0
ENDSEC
0
SECTION
2
ENTITIES
0
LWPOLYLINE
5
100
100
AcDbEntity
8
0
100
AcDbPolyline
90
24
70
1
43
0.0
10
-457
20
-50.000000000000014
10
-457
20
-1.7763568394002505e-14
10
-467.26160184999293
20
17.773615771230386
10
-465.74285389093887
20
26.386863459994746
10
-472.88271010027745
20
27.645812748079987
10
-471.14622832360806
20
37.49389027820208
10
-464.00637211426954
20
36.234940990116833
10
-448.3780361242458
20
124.8676387612153
10
-455.5178923335842
20
126.12658804930118
10
-453.78141055691367
20
135.97466557942329
10
-446.64155434757646
20
134.71571629133757
10
-443.16859079423784
20
154.41187135158185
10
-38.831409205762171
20
154.41187135158185
10
-35.358445652423498
20
134.71571629133757
10
-28.218589443086373
20
135.97466557942329
10
-26.482107666415828
20
126.12658804930118
10
-33.621963875754162
20
124.8676387612153
10
-17.993627885730419
20
36.234940990116833
10
-10.853771676391943
20
37.49389027820208
10
-9.1172898997226071
20
27.645812748079987
10
-16.257146109061154
20
26.386863459994746
10
-14.738398150007157
20
17.773615771230386
10
-25
20
-1.7763568394002505e-14
10
-25
20
-50.000000000000014
0
CIRCLE
5
101
100
AcDbEntity
8
0
100
AcDbCircle
10
-76.799999999999997
20
-30.000000000000007
30
0
40
2.2499999999999964
210
0
220
-0
230
1
0
CIRCLE
5
102
100
AcDbEntity
8
0
100
AcDbCircle
10
-425.20000000000005
20
-30.000000000000007
30
0
40
2.2500000000000142
210
0
220
-0
230
1
0
CIRCLE
5
103
100
AcDbEntity
8
0
100
AcDbCircle
10
-124.50000000000003
20
-36.000000000000014
30
0
40
2.5
210
0
220
-0
230
1
0
CIRCLE
5
104
100
AcDbEntity
8
0
100
AcDbCircle
10
-56.799999999999997
20
-30.000000000000007
30
0
40
2.2499999999999964
210
0
220
-0
230
1
0
CIRCLE
5
105
100
AcDbEntity
8
0
100
AcDbCircle
10
-405.20000000000005
20
-30.000000000000007
30
0
40
2.2500000000000142
210
0
220
-0
230
1
0
CIRCLE
5
106
100
AcDbEntity
8
0
100
AcDbCircle
10
-357.5
20
-36.000000000000014
30
0
40
2.5
210
0
220
-0
230
1
0
CIRCLE
5
107
100
AcDbEntity
8
0
100
AcDbCircle
10
-96.799999999999997
20
-30.000000000000007
30
0
40
2.2499999999999964
210
0
220
-0
230
1
0
CIRCLE
5
108
100
AcDbEntity
8
0
100
AcDbCircle
10
-385.20000000000005
20
-30.000000000000007
30
0
40
2.2500000000000142
210
0
220
-0
230
1
0
ENDSEC
0
SECTION
2
OBJECTS
0
DICTIONARY
5
C
100
AcDbDictionary
3
ACAD_GROUP
350
D
3
ACAD_MLINESTYLE
350
17
0
DICTIONARY
5
D
100
AcDbDictionary
0
DICTIONARY
5
1A
330
C
100
AcDbDictionary
0
DICTIONARY
5
17
100
AcDbDictionary
0
ENDSEC
0
EOF
